<svg width="32" height="33" viewBox="0 0 32 33" fill="none" xmlns="http://www.w3.org/2000/svg">
<rect y="0.5" width="32" height="32" rx="16" fill="#2091FF"/>
<path d="M16 7C18.2543 7 20.4163 7.89337 22.0104 9.48358C23.6045 11.0738 24.5 13.2306 24.5 15.4795C24.5 18.3757 22.9171 20.7462 21.2492 22.4468C20.4158 23.2871 19.5065 24.0491 18.533 24.7231L18.1307 24.9963L17.9418 25.1216L17.5857 25.3477L17.2684 25.5408L16.8755 25.7689C16.6087 25.9203 16.307 26 16 26C15.693 26 15.3913 25.9203 15.1245 25.7689L14.7316 25.5408L14.2405 25.2394L14.0592 25.1216L13.6719 24.8644C12.6217 24.1552 11.6433 23.3455 10.7508 22.4468C9.08289 20.7452 7.5 18.3757 7.5 15.4795C7.5 13.2306 8.39553 11.0738 9.98959 9.48358C11.5837 7.89337 13.7457 7 16 7ZM16 12.653C15.6279 12.653 15.2595 12.7261 14.9157 12.8681C14.572 13.0102 14.2596 13.2184 13.9965 13.4808C13.7334 13.7433 13.5247 14.0549 13.3823 14.3978C13.24 14.7408 13.1667 15.1083 13.1667 15.4795C13.1667 15.8507 13.24 16.2182 13.3823 16.5611C13.5247 16.9041 13.7334 17.2156 13.9965 17.4781C14.2596 17.7406 14.572 17.9488 14.9157 18.0908C15.2595 18.2329 15.6279 18.306 16 18.306C16.7514 18.306 17.4721 18.0082 18.0035 17.4781C18.5348 16.948 18.8333 16.2291 18.8333 15.4795C18.8333 14.7298 18.5348 14.0109 18.0035 13.4808C17.4721 12.9508 16.7514 12.653 16 12.653Z" fill="white"/>
</svg>
