<svg width="17" height="19" viewBox="0 0 17 19" fill="none" xmlns="http://www.w3.org/2000/svg">
<path d="M0.85 12.6874V12.6875C0.85 14.5422 1.77475 15.9419 3.20728 16.8486L3.20737 16.8486C4.61254 17.7367 6.49476 18.15 8.5 18.15C10.5052 18.15 12.3875 17.7367 13.7926 16.8486L13.7927 16.8486C15.2253 15.9429 16.15 14.5411 16.15 12.6875C16.15 12.0837 15.9081 11.5049 15.478 11.0784C15.0479 10.6519 14.4648 10.4125 13.8571 10.4125L3.15309 10.4125L3.1525 10.5625V10.4125H3.15285C2.85119 10.4113 2.55223 10.4692 2.27311 10.5829C1.9939 10.6965 1.73999 10.8638 1.52597 11.0751C1.31194 11.2864 1.14201 11.5375 1.02599 11.8142C0.909966 12.0909 0.850149 12.3877 0.85 12.6874ZM13.056 15.6982L13.0558 15.6983C11.9411 16.404 10.3412 16.7875 8.5 16.7875C6.65881 16.7875 5.05894 16.404 3.94416 15.6983L3.94414 15.6983C2.85674 15.0102 2.22143 14.0214 2.22143 12.6875C2.22143 12.1849 2.63211 11.775 3.1525 11.775H13.8571C14.1019 11.775 14.3364 11.8714 14.5091 12.0427C14.6818 12.2139 14.7786 12.4459 14.7786 12.6875C14.7786 14.0205 14.1442 15.0113 13.056 15.6982ZM8.5 0.85C7.32398 0.85 6.19587 1.31327 5.36392 2.13829C4.53193 2.96335 4.06429 4.08264 4.06429 5.25C4.06429 6.41736 4.53193 7.53665 5.36392 8.36171C6.19587 9.18673 7.32398 9.65 8.5 9.65C9.67602 9.65 10.8041 9.18673 11.6361 8.36171C12.4681 7.53665 12.9357 6.41736 12.9357 5.25C12.9357 4.08264 12.4681 2.96335 11.6361 2.13829C10.8041 1.31327 9.67602 0.85 8.5 0.85ZM5.43571 5.25C5.43571 4.44481 5.75825 3.67235 6.33278 3.10261C6.90735 2.53282 7.6869 2.2125 8.5 2.2125C9.3131 2.2125 10.0927 2.53282 10.6672 3.10261C11.2417 3.67235 11.5643 4.44481 11.5643 5.25C11.5643 6.05519 11.2417 6.82765 10.6672 7.39739C10.0927 7.96718 9.3131 8.2875 8.5 8.2875C7.6869 8.2875 6.90735 7.96718 6.33278 7.39739C5.75825 6.82765 5.43571 6.05519 5.43571 5.25Z" fill="white" stroke="white" stroke-width="0.3"/>
</svg>
