<svg width="20" height="20" viewBox="0 0 20 20" fill="none" xmlns="http://www.w3.org/2000/svg">
<path d="M17.4998 6.25002L14.1665 7.91669M14.1665 7.91669L13.7498 8.12502L9.99984 10M14.1665 7.91669V10.8334M14.1665 7.91669L6.24984 3.75002M9.99984 10L2.49984 6.25002M9.99984 10V17.9167M12.9815 2.81835L14.6482 3.69335C16.4407 4.63419 17.3373 5.10419 17.8357 5.95002C18.3332 6.79502 18.3332 7.84752 18.3332 9.95169V10.0492C18.3332 12.1525 18.3332 13.205 17.8357 14.05C17.3373 14.8959 16.4407 15.3667 14.6482 16.3075L12.9815 17.1817C11.5182 17.9492 10.7865 18.3334 9.99984 18.3334C9.21317 18.3334 8.4815 17.95 7.01817 17.1817L5.3515 16.3067C3.559 15.3659 2.66234 14.8959 2.164 14.05C1.6665 13.205 1.6665 12.1525 1.6665 10.05V9.95252C1.6665 7.84835 1.6665 6.79585 2.164 5.95085C2.66234 5.10502 3.559 4.63419 5.3515 3.69419L7.01817 2.81919C8.4815 2.05085 9.21317 1.66669 9.99984 1.66669C10.7865 1.66669 11.5182 2.05002 12.9815 2.81835Z" stroke="white" stroke-width="1.5" stroke-linecap="round"/>
</svg>
