<svg width="20" height="20" viewBox="0 0 20 20" fill="none" xmlns="http://www.w3.org/2000/svg">
<g clip-path="url(#clip0_1019_1154)">
<path d="M17.4998 6.25002L14.1665 7.91669M14.1665 7.91669L13.7498 8.12502L9.99984 10M14.1665 7.91669V10.8334M14.1665 7.91669L6.24984 3.75002M9.99984 10L2.49984 6.25002M9.99984 10V17.9167M12.9815 2.81835L14.6482 3.69335C16.4407 4.63419 17.3373 5.10419 17.8357 5.95002C18.3332 6.79502 18.3332 7.84752 18.3332 9.95169V10.0492C18.3332 12.1525 18.3332 13.205 17.8357 14.05C17.3373 14.8959 16.4407 15.3667 14.6482 16.3075L12.9815 17.1817C11.5182 17.9492 10.7865 18.3334 9.99984 18.3334C9.21317 18.3334 8.4815 17.95 7.01817 17.1817L5.3515 16.3067C3.559 15.3659 2.66234 14.8959 2.164 14.05C1.6665 13.205 1.6665 12.1525 1.6665 10.05V9.95252C1.6665 7.84835 1.6665 6.79585 2.164 5.95085C2.66234 5.10502 3.559 4.63419 5.3515 3.69419L7.01817 2.81919C8.4815 2.05085 9.21317 1.66669 9.99984 1.66669C10.7865 1.66669 11.5182 2.05002 12.9815 2.81835Z" stroke="#999999" stroke-width="1.5" stroke-linecap="round"/>
<circle cx="10" cy="10" r="4.4" fill="#2091FF" stroke="#999999" stroke-width="1.2"/>
<path d="M7.5 8.5C7.5 8.40054 7.52634 8.30516 7.57322 8.23484C7.62011 8.16451 7.6837 8.125 7.75 8.125H12.25C12.3163 8.125 12.3799 8.16451 12.4268 8.23484C12.4737 8.30516 12.5 8.40054 12.5 8.5C12.5 8.59946 12.4737 8.69484 12.4268 8.76516C12.3799 8.83549 12.3163 8.875 12.25 8.875H7.75C7.6837 8.875 7.62011 8.83549 7.57322 8.76516C7.52634 8.69484 7.5 8.59946 7.5 8.5ZM7.5 10C7.5 9.90054 7.52634 9.80516 7.57322 9.73484C7.62011 9.66451 7.6837 9.625 7.75 9.625H12.25C12.3163 9.625 12.3799 9.66451 12.4268 9.73484C12.4737 9.80516 12.5 9.90054 12.5 10C12.5 10.0995 12.4737 10.1948 12.4268 10.2652C12.3799 10.3355 12.3163 10.375 12.25 10.375H7.75C7.6837 10.375 7.62011 10.3355 7.57322 10.2652C7.52634 10.1948 7.5 10.0995 7.5 10ZM7.75 11.125C7.6837 11.125 7.62011 11.1645 7.57322 11.2348C7.52634 11.3052 7.5 11.4005 7.5 11.5C7.5 11.5995 7.52634 11.6948 7.57322 11.7652C7.62011 11.8355 7.6837 11.875 7.75 11.875H10.75C10.8163 11.875 10.8799 11.8355 10.9268 11.7652C10.9737 11.6948 11 11.5995 11 11.5C11 11.4005 10.9737 11.3052 10.9268 11.2348C10.8799 11.1645 10.8163 11.125 10.75 11.125H7.75Z" fill="#999999"/>
</g>
<defs>
<clipPath id="clip0_1019_1154">
<rect width="20" height="20" fill="white"/>
</clipPath>
</defs>
</svg>
